<?xml version="1.0" encoding="UTF-8" standalone="no"?>
<!DOCTYPE svg PUBLIC "-//W3C//DTD SVG 1.1//EN" "http://www.w3.org/Graphics/SVG/1.1/DTD/svg11.dtd">
<svg width="100%" height="100%" viewBox="0 0 1060 151" version="1.1" xmlns="http://www.w3.org/2000/svg" xmlns:xlink="http://www.w3.org/1999/xlink" xml:space="preserve" xmlns:serif="http://www.serif.com/" style="fill-rule:evenodd;clip-rule:evenodd;stroke-linejoin:round;stroke-miterlimit:2;">
    <g transform="matrix(1,0,0,1,-149.388,-603.796)">
        <g id="creativebox---white" serif:id="creativebox - white" transform="matrix(1.26409,0,0,1.26409,-455.821,-508.233)">
            <g transform="matrix(150,0,0,150,473.973,997.759)">
                <path d="M0.332,0.008C0.275,0.008 0.223,-0.004 0.178,-0.028C0.132,-0.051 0.096,-0.084 0.071,-0.126C0.045,-0.168 0.032,-0.216 0.032,-0.269C0.032,-0.322 0.045,-0.37 0.071,-0.412C0.096,-0.454 0.132,-0.487 0.178,-0.511C0.223,-0.534 0.275,-0.546 0.332,-0.546C0.389,-0.546 0.438,-0.534 0.481,-0.511C0.523,-0.487 0.554,-0.453 0.573,-0.409L0.452,-0.344C0.424,-0.393 0.384,-0.418 0.331,-0.418C0.29,-0.418 0.257,-0.405 0.23,-0.378C0.203,-0.351 0.19,-0.315 0.19,-0.269C0.19,-0.223 0.203,-0.187 0.23,-0.16C0.257,-0.133 0.29,-0.12 0.331,-0.12C0.384,-0.12 0.425,-0.145 0.452,-0.194L0.573,-0.128C0.554,-0.085 0.523,-0.052 0.481,-0.028C0.438,-0.004 0.389,0.008 0.332,0.008Z" style="fill:white;fill-rule:nonzero;"/>
            </g>
            <g transform="matrix(150,0,0,150,553.623,997.759)">
                <path d="M0.221,-0.467C0.24,-0.493 0.265,-0.513 0.297,-0.526C0.328,-0.539 0.365,-0.546 0.406,-0.546L0.406,-0.402C0.389,-0.403 0.377,-0.404 0.371,-0.404C0.326,-0.404 0.291,-0.392 0.266,-0.367C0.241,-0.341 0.228,-0.304 0.228,-0.254L0.228,0L0.072,0L0.072,-0.538L0.221,-0.538L0.221,-0.467Z" style="fill:white;fill-rule:nonzero;"/>
            </g>
            <g transform="matrix(150,0,0,150,607.923,997.759)">
                <path d="M0.599,-0.267C0.599,-0.265 0.598,-0.251 0.596,-0.225L0.189,-0.225C0.196,-0.192 0.214,-0.165 0.241,-0.146C0.268,-0.127 0.302,-0.117 0.343,-0.117C0.371,-0.117 0.396,-0.121 0.418,-0.13C0.439,-0.138 0.459,-0.151 0.478,-0.169L0.561,-0.079C0.51,-0.021 0.436,0.008 0.339,0.008C0.278,0.008 0.225,-0.004 0.178,-0.028C0.131,-0.051 0.095,-0.084 0.07,-0.126C0.045,-0.168 0.032,-0.216 0.032,-0.269C0.032,-0.322 0.045,-0.369 0.07,-0.412C0.094,-0.454 0.129,-0.487 0.173,-0.511C0.216,-0.534 0.265,-0.546 0.319,-0.546C0.372,-0.546 0.419,-0.535 0.462,-0.512C0.505,-0.489 0.538,-0.457 0.563,-0.415C0.587,-0.372 0.599,-0.323 0.599,-0.267ZM0.32,-0.428C0.285,-0.428 0.255,-0.418 0.231,-0.398C0.207,-0.378 0.192,-0.351 0.187,-0.316L0.452,-0.316C0.447,-0.35 0.432,-0.377 0.408,-0.398C0.384,-0.418 0.355,-0.428 0.32,-0.428Z" style="fill:white;fill-rule:nonzero;"/>
            </g>
            <g transform="matrix(150,0,0,150,691.323,997.759)">
                <path d="M0.289,-0.546C0.372,-0.546 0.436,-0.526 0.481,-0.487C0.526,-0.447 0.548,-0.387 0.548,-0.307L0.548,0L0.402,0L0.402,-0.067C0.373,-0.017 0.318,0.008 0.238,0.008C0.197,0.008 0.161,0.001 0.131,-0.013C0.1,-0.027 0.077,-0.046 0.061,-0.071C0.045,-0.096 0.037,-0.124 0.037,-0.155C0.037,-0.205 0.056,-0.244 0.094,-0.273C0.131,-0.302 0.189,-0.316 0.268,-0.316L0.392,-0.316C0.392,-0.35 0.382,-0.376 0.361,-0.395C0.34,-0.413 0.309,-0.422 0.268,-0.422C0.239,-0.422 0.211,-0.418 0.184,-0.409C0.156,-0.4 0.132,-0.387 0.113,-0.372L0.057,-0.481C0.086,-0.502 0.122,-0.518 0.163,-0.529C0.204,-0.54 0.246,-0.546 0.289,-0.546ZM0.277,-0.097C0.304,-0.097 0.327,-0.103 0.348,-0.116C0.369,-0.128 0.383,-0.146 0.392,-0.17L0.392,-0.225L0.285,-0.225C0.221,-0.225 0.189,-0.204 0.189,-0.162C0.189,-0.142 0.197,-0.126 0.213,-0.115C0.228,-0.103 0.25,-0.097 0.277,-0.097Z" style="fill:white;fill-rule:nonzero;"/>
            </g>
            <g transform="matrix(150,0,0,150,774.873,997.759)">
                <path d="M0.419,-0.026C0.404,-0.015 0.385,-0.006 0.363,-0.001C0.34,0.005 0.317,0.008 0.292,0.008C0.228,0.008 0.179,-0.008 0.144,-0.041C0.109,-0.074 0.091,-0.122 0.091,-0.185L0.091,-0.406L0.008,-0.406L0.008,-0.526L0.091,-0.526L0.091,-0.657L0.247,-0.657L0.247,-0.526L0.381,-0.526L0.381,-0.406L0.247,-0.406L0.247,-0.187C0.247,-0.164 0.253,-0.147 0.265,-0.135C0.276,-0.122 0.293,-0.116 0.314,-0.116C0.339,-0.116 0.36,-0.123 0.377,-0.136L0.419,-0.026Z" style="fill:white;fill-rule:nonzero;"/>
            </g>
            <g transform="matrix(150,0,0,150,831.123,997.759)">
                <path d="M0.072,-0.538L0.228,-0.538L0.228,0L0.072,0L0.072,-0.538ZM0.15,-0.613C0.121,-0.613 0.098,-0.621 0.08,-0.638C0.062,-0.655 0.053,-0.675 0.053,-0.7C0.053,-0.725 0.062,-0.745 0.08,-0.762C0.098,-0.779 0.121,-0.787 0.15,-0.787C0.179,-0.787 0.202,-0.779 0.22,-0.763C0.238,-0.747 0.247,-0.727 0.247,-0.703C0.247,-0.677 0.238,-0.656 0.22,-0.639C0.202,-0.622 0.179,-0.613 0.15,-0.613Z" style="fill:white;fill-rule:nonzero;"/>
            </g>
            <g transform="matrix(150,0,0,150,867.273,997.759)">
                <path d="M0.606,-0.538L0.379,0L0.218,0L-0.008,-0.538L0.153,-0.538L0.302,-0.172L0.456,-0.538L0.606,-0.538Z" style="fill:white;fill-rule:nonzero;"/>
            </g>
            <g transform="matrix(150,0,0,150,945.723,997.759)">
                <path d="M0.599,-0.267C0.599,-0.265 0.598,-0.251 0.596,-0.225L0.189,-0.225C0.196,-0.192 0.214,-0.165 0.241,-0.146C0.268,-0.127 0.302,-0.117 0.343,-0.117C0.371,-0.117 0.396,-0.121 0.418,-0.13C0.439,-0.138 0.459,-0.151 0.478,-0.169L0.561,-0.079C0.51,-0.021 0.436,0.008 0.339,0.008C0.278,0.008 0.225,-0.004 0.178,-0.028C0.131,-0.051 0.095,-0.084 0.07,-0.126C0.045,-0.168 0.032,-0.216 0.032,-0.269C0.032,-0.322 0.045,-0.369 0.07,-0.412C0.094,-0.454 0.129,-0.487 0.173,-0.511C0.216,-0.534 0.265,-0.546 0.319,-0.546C0.372,-0.546 0.419,-0.535 0.462,-0.512C0.505,-0.489 0.538,-0.457 0.563,-0.415C0.587,-0.372 0.599,-0.323 0.599,-0.267ZM0.32,-0.428C0.285,-0.428 0.255,-0.418 0.231,-0.398C0.207,-0.378 0.192,-0.351 0.187,-0.316L0.452,-0.316C0.447,-0.35 0.432,-0.377 0.408,-0.398C0.384,-0.418 0.355,-0.428 0.32,-0.428Z" style="fill:white;fill-rule:nonzero;"/>
            </g>
            <g transform="matrix(150,0,0,150,1064.82,997.759)">
                <path d="M0.37,-0.53C0.419,-0.53 0.464,-0.519 0.504,-0.497C0.544,-0.474 0.575,-0.443 0.598,-0.402C0.621,-0.361 0.632,-0.315 0.632,-0.263C0.632,-0.211 0.621,-0.165 0.598,-0.124C0.575,-0.083 0.544,-0.052 0.504,-0.029C0.464,-0.006 0.419,0.005 0.37,0.005C0.326,0.005 0.286,-0.004 0.252,-0.023C0.217,-0.042 0.188,-0.069 0.167,-0.104L0.167,0L0.099,0L0.099,-0.742L0.17,-0.742L0.17,-0.426C0.192,-0.46 0.22,-0.486 0.255,-0.504C0.289,-0.521 0.327,-0.53 0.37,-0.53ZM0.365,-0.058C0.402,-0.058 0.435,-0.067 0.465,-0.084C0.495,-0.1 0.519,-0.125 0.536,-0.156C0.553,-0.187 0.561,-0.223 0.561,-0.263C0.561,-0.303 0.553,-0.339 0.536,-0.37C0.519,-0.401 0.495,-0.426 0.465,-0.443C0.435,-0.46 0.402,-0.468 0.365,-0.468C0.328,-0.468 0.294,-0.46 0.265,-0.443C0.235,-0.426 0.212,-0.401 0.195,-0.37C0.178,-0.339 0.169,-0.303 0.169,-0.263C0.169,-0.223 0.178,-0.187 0.195,-0.156C0.212,-0.125 0.235,-0.1 0.265,-0.084C0.294,-0.067 0.328,-0.058 0.365,-0.058Z" style="fill:white;fill-rule:nonzero;"/>
            </g>
            <g transform="matrix(150,0,0,150,1157.52,997.759)">
                <path d="M0.314,0.005C0.263,0.005 0.218,-0.007 0.177,-0.03C0.136,-0.053 0.104,-0.084 0.081,-0.125C0.058,-0.166 0.046,-0.212 0.046,-0.263C0.046,-0.314 0.058,-0.36 0.081,-0.401C0.104,-0.442 0.136,-0.473 0.177,-0.496C0.218,-0.519 0.263,-0.53 0.314,-0.53C0.365,-0.53 0.41,-0.519 0.451,-0.496C0.492,-0.473 0.524,-0.442 0.547,-0.401C0.57,-0.36 0.581,-0.314 0.581,-0.263C0.581,-0.212 0.57,-0.166 0.547,-0.125C0.524,-0.084 0.492,-0.053 0.451,-0.03C0.41,-0.007 0.365,0.005 0.314,0.005ZM0.314,-0.058C0.351,-0.058 0.385,-0.067 0.415,-0.084C0.444,-0.1 0.467,-0.125 0.484,-0.156C0.501,-0.187 0.509,-0.223 0.509,-0.263C0.509,-0.303 0.501,-0.339 0.484,-0.37C0.467,-0.401 0.444,-0.426 0.415,-0.443C0.385,-0.46 0.351,-0.468 0.314,-0.468C0.277,-0.468 0.243,-0.46 0.214,-0.443C0.184,-0.426 0.161,-0.401 0.144,-0.37C0.127,-0.339 0.118,-0.303 0.118,-0.263C0.118,-0.223 0.127,-0.187 0.144,-0.156C0.161,-0.125 0.184,-0.1 0.214,-0.084C0.243,-0.067 0.277,-0.058 0.314,-0.058Z" style="fill:white;fill-rule:nonzero;"/>
            </g>
            <g transform="matrix(150,0,0,150,1239.72,997.759)">
                <path d="M0.434,0L0.267,-0.22L0.099,0L0.019,0L0.227,-0.27L0.029,-0.526L0.109,-0.526L0.267,-0.32L0.425,-0.526L0.503,-0.526L0.305,-0.27L0.515,0L0.434,0Z" style="fill:white;fill-rule:nonzero;"/>
            </g>
        </g>
    </g>
</svg>
